<svg width="90" height="30" viewBox="0 0 78 25" fill="none" xmlns="http://www.w3.org/2000/svg">
<path d="M0.2 19V16.864L6.776 8.224V8.824H0.2V6.352H9.848V8.464L3.464 16.96L3.368 16.528H10.016V19H0.2ZM13.2046 19V6.352H16.1326V19H13.2046ZM14.6446 3.664C14.0526 3.664 13.5886 3.52 13.2526 3.232C12.9326 2.928 12.7726 2.504 12.7726 1.96C12.7726 1.448 12.9406 1.04 13.2766 0.735999C13.6126 0.415999 14.0686 0.256 14.6446 0.256C15.2366 0.256 15.6926 0.408 16.0126 0.711999C16.3486 1 16.5166 1.416 16.5166 1.96C16.5166 2.456 16.3486 2.864 16.0126 3.184C15.6766 3.504 15.2206 3.664 14.6446 3.664ZM19.8764 24.28V6.352H22.7564L22.8044 9.208L22.3004 8.992C22.3964 8.496 22.6684 8.032 23.1164 7.6C23.5644 7.168 24.1084 6.816 24.7484 6.544C25.4044 6.272 26.0844 6.136 26.7884 6.136C27.9084 6.136 28.9004 6.416 29.7644 6.976C30.6444 7.536 31.3324 8.312 31.8284 9.304C32.3404 10.28 32.5964 11.4 32.5964 12.664C32.5964 13.928 32.3484 15.056 31.8524 16.048C31.3564 17.024 30.6684 17.8 29.7884 18.376C28.9244 18.936 27.9404 19.216 26.8364 19.216C26.1004 19.216 25.3884 19.072 24.7004 18.784C24.0284 18.496 23.4604 18.12 22.9964 17.656C22.5324 17.192 22.2364 16.712 22.1084 16.216L22.8284 15.856V24.28H19.8764ZM26.2604 16.6C26.9324 16.6 27.5324 16.432 28.0604 16.096C28.5884 15.76 29.0044 15.296 29.3084 14.704C29.6124 14.112 29.7644 13.432 29.7644 12.664C29.7644 11.896 29.6124 11.224 29.3084 10.648C29.0204 10.056 28.6124 9.592 28.0844 9.256C27.5564 8.904 26.9484 8.728 26.2604 8.728C25.5564 8.728 24.9404 8.896 24.4124 9.232C23.8844 9.568 23.4684 10.032 23.1644 10.624C22.8604 11.216 22.7084 11.896 22.7084 12.664C22.7084 13.432 22.8604 14.112 23.1644 14.704C23.4684 15.296 23.8844 15.76 24.4124 16.096C24.9404 16.432 25.5564 16.6 26.2604 16.6ZM35.228 19V1.24H38.132V8.944L37.58 9.232C37.756 8.672 38.068 8.16 38.516 7.696C38.98 7.216 39.532 6.832 40.172 6.544C40.812 6.24 41.476 6.088 42.164 6.088C43.124 6.088 43.924 6.28 44.564 6.664C45.22 7.048 45.708 7.624 46.028 8.392C46.348 9.16 46.508 10.12 46.508 11.272V19H43.58V11.488C43.58 10.832 43.492 10.296 43.316 9.88C43.14 9.448 42.868 9.136 42.5 8.944C42.132 8.736 41.684 8.648 41.156 8.68C40.724 8.68 40.324 8.752 39.956 8.896C39.588 9.024 39.268 9.216 38.996 9.472C38.74 9.712 38.532 10 38.372 10.336C38.228 10.656 38.156 11.008 38.156 11.392V19H36.692C36.42 19 36.156 19 35.9 19C35.66 19 35.436 19 35.228 19ZM55.613 19.24C54.349 19.24 53.221 18.96 52.229 18.4C51.237 17.824 50.453 17.04 49.877 16.048C49.317 15.056 49.037 13.928 49.037 12.664C49.037 11.4 49.317 10.272 49.877 9.28C50.453 8.288 51.237 7.512 52.229 6.952C53.221 6.376 54.349 6.088 55.613 6.088C56.861 6.088 57.981 6.376 58.973 6.952C59.965 7.512 60.741 8.288 61.301 9.28C61.877 10.272 62.165 11.4 62.165 12.664C62.165 13.928 61.877 15.056 61.301 16.048C60.741 17.04 59.965 17.824 58.973 18.4C57.981 18.96 56.861 19.24 55.613 19.24ZM55.613 16.624C56.301 16.624 56.917 16.456 57.461 16.12C58.005 15.768 58.429 15.296 58.733 14.704C59.053 14.096 59.205 13.416 59.189 12.664C59.205 11.896 59.053 11.216 58.733 10.624C58.429 10.016 58.005 9.544 57.461 9.208C56.917 8.872 56.301 8.704 55.613 8.704C54.925 8.704 54.301 8.88 53.741 9.232C53.197 9.568 52.773 10.04 52.469 10.648C52.165 11.24 52.013 11.912 52.013 12.664C52.013 13.416 52.165 14.096 52.469 14.704C52.773 15.296 53.197 15.768 53.741 16.12C54.301 16.456 54.925 16.624 55.613 16.624ZM64.8061 24.28V6.352H67.6861L67.7341 9.208L67.2301 8.992C67.3261 8.496 67.5981 8.032 68.0461 7.6C68.4941 7.168 69.0381 6.816 69.6781 6.544C70.3341 6.272 71.0141 6.136 71.7181 6.136C72.8381 6.136 73.8301 6.416 74.6941 6.976C75.5741 7.536 76.2621 8.312 76.7581 9.304C77.2701 10.28 77.5261 11.4 77.5261 12.664C77.5261 13.928 77.2781 15.056 76.7821 16.048C76.2861 17.024 75.5981 17.8 74.7181 18.376C73.8541 18.936 72.8701 19.216 71.7661 19.216C71.0301 19.216 70.3181 19.072 69.6301 18.784C68.9581 18.496 68.3901 18.12 67.9261 17.656C67.4621 17.192 67.1661 16.712 67.0381 16.216L67.7581 15.856V24.28H64.8061ZM71.1901 16.6C71.8621 16.6 72.4621 16.432 72.9901 16.096C73.5181 15.76 73.9341 15.296 74.2381 14.704C74.5421 14.112 74.6941 13.432 74.6941 12.664C74.6941 11.896 74.5421 11.224 74.2381 10.648C73.9501 10.056 73.5421 9.592 73.0141 9.256C72.4861 8.904 71.8781 8.728 71.1901 8.728C70.4861 8.728 69.8701 8.896 69.3421 9.232C68.8141 9.568 68.3981 10.032 68.0941 10.624C67.7901 11.216 67.6381 11.896 67.6381 12.664C67.6381 13.432 67.7901 14.112 68.0941 14.704C68.3981 15.296 68.8141 15.76 69.3421 16.096C69.8701 16.432 70.4861 16.6 71.1901 16.6Z" fill="#00B3FF"/>
</svg>
