<svg width="18" height="17" viewBox="0 0 18 17" fill="none" xmlns="http://www.w3.org/2000/svg">
<path d="M11.2843 2.77778L9.06212 1L6.71548 2.77778" stroke="#00B3FF" stroke-width="1.5" stroke-linecap="round" stroke-linejoin="round"/>
<path d="M15.2222 6.78662H16.1111C16.3468 6.78662 16.573 6.88031 16.7396 7.04698C16.9063 7.21364 17 7.43978 17 7.67551V14.0133C17.0011 14.2762 16.9502 14.5368 16.8501 14.78C16.75 15.0232 16.6027 15.2441 16.4168 15.4301C16.2308 15.616 16.0099 15.7633 15.7667 15.8634C15.5235 15.9635 15.2629 16.0144 15 16.0133H3C2.46956 16.0133 1.96086 15.8025 1.58579 15.4275C1.21071 15.0524 1 14.5437 1 14.0133V7.67551C1 7.43978 1.09365 7.21364 1.26035 7.04698C1.42705 6.88031 1.65314 6.78662 1.88889 6.78662H2.77778" stroke="#00B3FF" stroke-width="1.5" stroke-linecap="round" stroke-linejoin="round"/>
<path d="M9 1.15991V10.3421" stroke="#00B3FF" stroke-width="1.5" stroke-linecap="round" stroke-linejoin="round"/>
<path d="M9 12.2532C9.49094 12.2532 9.88889 11.8553 9.88889 11.3644C9.88889 10.8734 9.49094 10.4755 9 10.4755C8.50907 10.4755 8.11111 10.8734 8.11111 11.3644C8.11111 11.8553 8.50907 12.2532 9 12.2532Z" stroke="#00B3FF" stroke-width="1.5" stroke-linecap="round" stroke-linejoin="round"/>
</svg>
